/usr/bin/start-video-rec.sh: line 93: kill: (515) - No such process
ffmpeg version 2.8.17-0ubuntu0.1 Copyright (c) 2000-2020 the FFmpeg developers
  built with gcc 5.4.0 (Ubuntu 5.4.0-6ubuntu1~16.04.12) 20160609
  configuration: --prefix=/usr --extra-version=0ubuntu0.1 --build-suffix=-ffmpeg --toolchain=hardened --libdir=/usr/lib/x86_64-linux-gnu --incdir=/usr/include/x86_64-linux-gnu --cc=cc --cxx=g++ --enable-gpl --enable-shared --disable-stripping --disable-decoder=libopenjpeg --disable-decoder=libschroedinger --enable-avresample --enable-avisynth --enable-gnutls --enable-ladspa --enable-libass --enable-libbluray --enable-libbs2b --enable-libcaca --enable-libcdio --enable-libflite --enable-libfontconfig --enable-libfreetype --enable-libfribidi --enable-libgme --enable-libgsm --enable-libmodplug --enable-libmp3lame --enable-libopenjpeg --enable-libopus --enable-libpulse --enable-librtmp --enable-libschroedinger --enable-libshine --enable-libsnappy --enable-libsoxr --enable-libspeex --enable-libssh --enable-libtheora --enable-libtwolame --enable-libvorbis --enable-libvpx --enable-libwavpack --enable-libwebp --enable-libx265 --enable-libxvid --enable-libzvbi --enable-openal --enable-opengl --enable-x11grab --enable-libdc1394 --enable-libiec61883 --enable-libzmq --enable-frei0r --enable-libx264 --enable-libopencv
  libavutil      54. 31.100 / 54. 31.100
  libavcodec     56. 60.100 / 56. 60.100
  libavformat    56. 40.101 / 56. 40.101
  libavdevice    56.  4.100 / 56.  4.100
  libavfilter     5. 40.101 /  5. 40.101
  libavresample   2.  1.  0 /  2.  1.  0
  libswscale      3.  1.101 /  3.  1.101
  libswresample   1.  2.101 /  1.  2.101
  libpostproc    53.  3.100 / 53.  3.100
Input #0, matroska,webm, from '/home/seluser/videos/vid_chrome_or_firefox_40002.mkv':
  Metadata:
    ENCODER         : Lavf56.40.101
  Duration: 00:02:13.00, start: 0.000000, bitrate: 112 kb/s
    Stream #0:0: Video: h264 (Constrained Baseline), yuv420p, 1366x768, SAR 1:1 DAR 683:384, 10 fps, 10 tbr, 1k tbn, 20 tbc (default)
    Metadata:
      ENCODER         : Lavc56.60.100 libx264
      DURATION        : 00:02:13.000000000
[libx264 @ 0x26b1740] using SAR=1/1
[libx264 @ 0x26b1740] using cpu capabilities: MMX2 SSE2Fast SSSE3 SSE4.2 AVX FMA3 AVX2 LZCNT BMI2
[libx264 @ 0x26b1740] profile Constrained Baseline, level 3.2
[libx264 @ 0x26b1740] 264 - core 148 r2643 5c65704 - H.264/MPEG-4 AVC codec - Copyleft 2003-2015 - http://www.videolan.org/x264.html - options: cabac=0 ref=1 deblock=0:0:0 analyse=0:0 me=dia subme=0 psy=1 psy_rd=1.00:0.00 mixed_ref=0 me_range=16 chroma_me=1 trellis=0 8x8dct=0 cqm=0 deadzone=21,11 fast_pskip=1 chroma_qp_offset=0 threads=3 lookahead_threads=1 sliced_threads=0 nr=0 decimate=1 interlaced=0 bluray_compat=0 constrained_intra=0 bframes=0 weightp=0 keyint=250 keyint_min=10 scenecut=0 intra_refresh=0 rc=crf mbtree=0 crf=23.0 qcomp=0.60 qpmin=0 qpmax=69 qpstep=4 ip_ratio=1.40 aq=0
Output #0, mp4, to '/home/seluser/videos/vid_chrome_or_firefox_40002.mp4':
  Metadata:
    encoder         : Lavf56.40.101
    Stream #0:0: Video: h264 (libx264) ([33][0][0][0] / 0x0021), yuv420p, 1366x768 [SAR 1:1 DAR 683:384], q=-1--1, 10 fps, 10240 tbn, 10 tbc (default)
    Metadata:
      DURATION        : 00:02:13.000000000
      encoder         : Lavc56.60.100 libx264
Stream mapping:
  Stream #0:0 -> #0:0 (h264 (native) -> h264 (libx264))
Press [q] to stop, [?] for help
frame=   84 fps=0.0 q=14.0 size=     352kB time=00:00:08.00 bitrate= 360.9kbits/s    
frame=  155 fps=153 q=9.0 size=     651kB time=00:00:15.10 bitrate= 353.2kbits/s    
frame=  214 fps=141 q=9.0 size=     654kB time=00:00:21.00 bitrate= 255.0kbits/s    
frame=  269 fps=133 q=9.0 size=     777kB time=00:00:26.50 bitrate= 240.1kbits/s    
frame=  332 fps=131 q=15.0 size=     911kB time=00:00:32.80 bitrate= 227.6kbits/s    
frame=  384 fps=126 q=9.0 size=    1095kB time=00:00:38.00 bitrate= 236.0kbits/s    
frame=  453 fps=127 q=9.0 size=    1099kB time=00:00:44.90 bitrate= 200.5kbits/s    
frame=  527 fps=130 q=9.0 size=    1275kB time=00:00:52.30 bitrate= 199.6kbits/s    
frame=  613 fps=134 q=9.0 size=    1276kB time=00:01:00.90 bitrate= 171.7kbits/s    
frame=  702 fps=139 q=9.0 size=    1278kB time=00:01:09.80 bitrate= 150.0kbits/s    
frame=  785 fps=141 q=9.0 size=    1452kB time=00:01:18.10 bitrate= 152.3kbits/s    
frame=  871 fps=143 q=9.0 size=    1454kB time=00:01:26.70 bitrate= 137.4kbits/s    
frame=  962 fps=146 q=9.0 size=    1456kB time=00:01:35.80 bitrate= 124.5kbits/s    
frame= 1053 fps=149 q=9.0 size=    1630kB time=00:01:44.90 bitrate= 127.3kbits/s    
frame= 1143 fps=151 q=9.0 size=    1632kB time=00:01:53.90 bitrate= 117.4kbits/s    
frame= 1225 fps=152 q=9.0 size=    1634kB time=00:02:02.10 bitrate= 109.6kbits/s    
frame= 1272 fps=148 q=9.0 size=    1807kB time=00:02:06.80 bitrate= 116.7kbits/s    
frame= 1330 fps=149 q=-1.0 Lsize=    1819kB time=00:02:13.00 bitrate= 112.0kbits/s    
video:1813kB audio:0kB subtitle:0kB other streams:0kB global headers:0kB muxing overhead: 0.332540%
[libx264 @ 0x26b1740] frame I:6     Avg QP: 8.33  size:140449
[libx264 @ 0x26b1740] frame P:1324  Avg QP: 9.48  size:   765
[libx264 @ 0x26b1740] mb I  I16..4: 100.0%  0.0%  0.0%
[libx264 @ 0x26b1740] mb P  I16..4:  0.6%  0.0%  0.0%  P16..4:  0.7%  0.0%  0.0%  0.0%  0.0%    skip:98.6%
[libx264 @ 0x26b1740] coded y,uvDC,uvAC intra: 18.7% 12.4% 11.8% inter: 0.3% 0.3% 0.2%
[libx264 @ 0x26b1740] i16 v,h,dc,p: 70% 27%  2%  1%
[libx264 @ 0x26b1740] i8c dc,h,v,p: 77% 19%  3%  1%
[libx264 @ 0x26b1740] kb/s:111.62
